<svg t="1657162303332" class="icon" viewBox="0 0 1024 1024" version="1.1" xmlns="http://www.w3.org/2000/svg" p-id="6592" data-spm-anchor-id="a313x.7781069.0.i5" width="200" height="200"><path d="M512 1024c-136.533333 0-264.533333-51.2-362.666667-149.333333S0 648.533333 0 512s51.2-264.533333 149.333333-362.666667S375.466667 0 512 0c72.533333 0 145.066667 17.066667 209.066667 46.933333 21.333333 8.533333 29.866667 34.133333 21.333333 55.466667-8.533333 21.333333-34.133333 29.866667-55.466667 21.333333-55.466667-25.6-115.2-38.4-174.933333-38.4-115.2 0-221.866667 42.666667-302.933333 123.733334S85.333333 396.8 85.333333 512s42.666667 221.866667 123.733334 302.933333C290.133333 896 396.8 938.666667 512 938.666667s221.866667-42.666667 302.933333-123.733334C896 733.866667 938.666667 627.2 938.666667 512c0-25.6 17.066667-42.666667 42.666666-42.666667s42.666667 17.066667 42.666667 42.666667c0 136.533333-51.2 264.533333-149.333333 362.666667S648.533333 1024 512 1024z" p-id="6593" data-spm-anchor-id="a313x.7781069.0.i7" class="selected" fill="#0064fa"></path><path d="M512 682.666667c-12.8 0-21.333333-4.266667-29.866667-12.8l-192-192c-17.066667-17.066667-17.066667-42.666667 0-59.733334s42.666667-17.066667 59.733334 0l162.133333 162.133334 354.133333-354.133334c17.066667-17.066667 42.666667-17.066667 59.733334 0s17.066667 42.666667 0 59.733334l-384 384c-8.533333 8.533333-17.066667 12.8-29.866667 12.8z" p-id="6594" data-spm-anchor-id="a313x.7781069.0.i6" class="selected" fill="#0064fa"></path></svg>